<svg xmlns="http://www.w3.org/2000/svg" xmlns:xlink="http://www.w3.org/1999/xlink" width="500" zoomAndPan="magnify" viewBox="0 0 375 374.999991" height="500" preserveAspectRatio="xMidYMid meet" version="1.0"><defs><g/></defs><path stroke-linecap="butt" transform="matrix(0.00181951, -0.749998, 0.749998, 0.00181951, 187.447185, 241.911942)" fill="none" stroke-linejoin="miter" d="M -0.00162076 0.497509 L 179.087462 0.500536 " stroke="#545454" stroke-width="1" stroke-opacity="1" stroke-miterlimit="4"/><g fill="#545454" fill-opacity="1"><g transform="translate(102.619558, 215.485995)"><g><path d="M 40.417969 1.601562 C 60.347656 1.601562 76.035156 -16.007812 76.035156 -40.019531 C 76.035156 -64.03125 60.347656 -81.636719 40.417969 -81.636719 C 20.488281 -81.636719 4.800781 -64.03125 4.800781 -40.019531 C 4.800781 -16.007812 20.488281 1.601562 40.417969 1.601562 Z M 40.417969 -80.675781 C 56.984375 -80.675781 68.832031 -63.390625 68.832031 -40.019531 C 68.832031 -16.648438 55.867188 0.640625 40.417969 0.640625 C 24.972656 0.640625 12.003906 -16.648438 12.003906 -40.019531 C 12.003906 -63.390625 23.851562 -80.675781 40.417969 -80.675781 Z M 40.417969 -80.675781 "/></g></g></g><g fill="#545454" fill-opacity="1"><g transform="translate(206.899154, 215.485995)"><g><path d="M 0 -79.234375 C 6.082031 -79.234375 8.003906 -73.234375 15.285156 -59.308594 C 20.25 -50.023438 26.570312 -39.136719 29.292969 -33.855469 L 29.292969 -22.25 C 29.292969 -6.484375 28.8125 -0.800781 21.929688 -0.800781 L 21.929688 0 L 43.539062 0 L 43.539062 -0.800781 C 36.65625 -0.800781 36.175781 -6.484375 36.175781 -22.25 L 36.175781 -33.855469 C 38.898438 -39.136719 45.21875 -50.023438 50.183594 -59.308594 C 57.464844 -73.234375 59.386719 -79.234375 65.46875 -79.234375 L 65.46875 -80.035156 L 48.34375 -80.035156 L 48.34375 -79.234375 L 50.421875 -79.234375 C 52.664062 -79.234375 54.90625 -78.4375 54.90625 -75.554688 C 54.90625 -70.273438 41.457031 -46.019531 35.9375 -35.535156 C 30.972656 -45.21875 16.167969 -69.550781 16.167969 -74.996094 C 16.167969 -78.195312 18.25 -79.234375 20.488281 -79.234375 L 22.25 -79.234375 L 22.25 -80.035156 L 0 -80.035156 Z M 0 -79.234375 "/></g></g></g><g fill="#545454" fill-opacity="1"><g transform="translate(108.383743, 263.602747)"><g><path d="M 6.109375 0.09375 C 5.097656 0.09375 4.179688 -0.128906 3.359375 -0.578125 C 2.546875 -1.035156 1.90625 -1.65625 1.4375 -2.4375 C 0.976562 -3.226562 0.75 -4.109375 0.75 -5.078125 C 0.75 -6.054688 0.976562 -6.9375 1.4375 -7.71875 C 1.90625 -8.507812 2.546875 -9.128906 3.359375 -9.578125 C 4.179688 -10.035156 5.097656 -10.265625 6.109375 -10.265625 C 7.109375 -10.265625 8.015625 -10.039062 8.828125 -9.59375 C 9.640625 -9.144531 10.273438 -8.523438 10.734375 -7.734375 C 11.203125 -6.941406 11.4375 -6.054688 11.4375 -5.078125 C 11.4375 -4.109375 11.203125 -3.226562 10.734375 -2.4375 C 10.273438 -1.644531 9.640625 -1.023438 8.828125 -0.578125 C 8.015625 -0.128906 7.109375 0.09375 6.109375 0.09375 Z M 6.109375 -0.875 C 6.910156 -0.875 7.632812 -1.054688 8.28125 -1.421875 C 8.925781 -1.785156 9.429688 -2.285156 9.796875 -2.921875 C 10.171875 -3.566406 10.359375 -4.285156 10.359375 -5.078125 C 10.359375 -5.878906 10.171875 -6.597656 9.796875 -7.234375 C 9.429688 -7.878906 8.925781 -8.382812 8.28125 -8.75 C 7.632812 -9.113281 6.910156 -9.296875 6.109375 -9.296875 C 5.296875 -9.296875 4.5625 -9.113281 3.90625 -8.75 C 3.257812 -8.382812 2.75 -7.878906 2.375 -7.234375 C 2 -6.597656 1.8125 -5.878906 1.8125 -5.078125 C 1.8125 -4.285156 2 -3.566406 2.375 -2.921875 C 2.75 -2.285156 3.257812 -1.785156 3.90625 -1.421875 C 4.5625 -1.054688 5.296875 -0.875 6.109375 -0.875 Z M 6.109375 -0.875 "/></g></g></g><g fill="#545454" fill-opacity="1"><g transform="translate(125.200291, 263.602747)"><g><path d="M 4.46875 0.09375 C 3.707031 0.09375 2.976562 -0.0234375 2.28125 -0.265625 C 1.59375 -0.515625 1.0625 -0.835938 0.6875 -1.234375 L 1.109375 -2.0625 C 1.472656 -1.695312 1.957031 -1.398438 2.5625 -1.171875 C 3.175781 -0.941406 3.8125 -0.828125 4.46875 -0.828125 C 5.375 -0.828125 6.050781 -0.992188 6.5 -1.328125 C 6.957031 -1.660156 7.1875 -2.09375 7.1875 -2.625 C 7.1875 -3.03125 7.0625 -3.351562 6.8125 -3.59375 C 6.570312 -3.84375 6.269531 -4.03125 5.90625 -4.15625 C 5.550781 -4.289062 5.054688 -4.4375 4.421875 -4.59375 C 3.648438 -4.78125 3.035156 -4.960938 2.578125 -5.140625 C 2.128906 -5.328125 1.742188 -5.601562 1.421875 -5.96875 C 1.097656 -6.34375 0.9375 -6.84375 0.9375 -7.46875 C 0.9375 -7.976562 1.070312 -8.441406 1.34375 -8.859375 C 1.613281 -9.285156 2.023438 -9.625 2.578125 -9.875 C 3.140625 -10.132812 3.835938 -10.265625 4.671875 -10.265625 C 5.253906 -10.265625 5.820312 -10.179688 6.375 -10.015625 C 6.9375 -9.859375 7.421875 -9.640625 7.828125 -9.359375 L 7.46875 -8.5 C 7.039062 -8.78125 6.582031 -8.988281 6.09375 -9.125 C 5.613281 -9.269531 5.140625 -9.34375 4.671875 -9.34375 C 3.785156 -9.34375 3.113281 -9.171875 2.65625 -8.828125 C 2.207031 -8.484375 1.984375 -8.039062 1.984375 -7.5 C 1.984375 -7.09375 2.109375 -6.765625 2.359375 -6.515625 C 2.609375 -6.265625 2.914062 -6.070312 3.28125 -5.9375 C 3.65625 -5.8125 4.160156 -5.671875 4.796875 -5.515625 C 5.546875 -5.335938 6.148438 -5.15625 6.609375 -4.96875 C 7.066406 -4.789062 7.453125 -4.519531 7.765625 -4.15625 C 8.085938 -3.800781 8.25 -3.3125 8.25 -2.6875 C 8.25 -2.175781 8.109375 -1.707031 7.828125 -1.28125 C 7.554688 -0.863281 7.132812 -0.53125 6.5625 -0.28125 C 5.988281 -0.03125 5.289062 0.09375 4.46875 0.09375 Z M 4.46875 0.09375 "/></g></g></g><g fill="#545454" fill-opacity="1"><g transform="translate(138.764474, 263.602747)"><g><path d="M 8.03125 -2.71875 L 2.375 -2.71875 L 1.140625 0 L 0.03125 0 L 4.671875 -10.171875 L 5.734375 -10.171875 L 10.390625 0 L 9.25 0 Z M 7.640625 -3.59375 L 5.203125 -9.046875 L 2.765625 -3.59375 Z M 7.640625 -3.59375 "/></g></g></g><g fill="#545454" fill-opacity="1"><g transform="translate(153.809649, 263.602747)"><g><path d="M 1.65625 -10.171875 L 5.796875 -10.171875 C 6.867188 -10.171875 7.816406 -9.953125 8.640625 -9.515625 C 9.460938 -9.085938 10.101562 -8.488281 10.5625 -7.71875 C 11.019531 -6.945312 11.25 -6.066406 11.25 -5.078125 C 11.25 -4.097656 11.019531 -3.222656 10.5625 -2.453125 C 10.101562 -1.679688 9.460938 -1.078125 8.640625 -0.640625 C 7.816406 -0.210938 6.867188 0 5.796875 0 L 1.65625 0 Z M 5.734375 -0.9375 C 6.628906 -0.9375 7.410156 -1.109375 8.078125 -1.453125 C 8.742188 -1.804688 9.257812 -2.296875 9.625 -2.921875 C 10 -3.546875 10.1875 -4.265625 10.1875 -5.078125 C 10.1875 -5.898438 10 -6.625 9.625 -7.25 C 9.257812 -7.875 8.742188 -8.359375 8.078125 -8.703125 C 7.410156 -9.054688 6.628906 -9.234375 5.734375 -9.234375 L 2.734375 -9.234375 L 2.734375 -0.9375 Z M 5.734375 -0.9375 "/></g></g></g><g fill="#545454" fill-opacity="1"><g transform="translate(170.43745, 263.602747)"><g><path d="M 4.8125 -4.78125 L 2.734375 -2.671875 L 2.734375 0 L 1.65625 0 L 1.65625 -10.171875 L 2.734375 -10.171875 L 2.734375 -4.03125 L 8.703125 -10.171875 L 9.9375 -10.171875 L 5.53125 -5.5625 L 10.25 0 L 8.96875 0 Z M 4.8125 -4.78125 "/></g></g></g><g fill="#545454" fill-opacity="1"><g transform="translate(185.395501, 263.602747)"><g><path d="M 6.109375 0.09375 C 5.097656 0.09375 4.179688 -0.128906 3.359375 -0.578125 C 2.546875 -1.035156 1.90625 -1.65625 1.4375 -2.4375 C 0.976562 -3.226562 0.75 -4.109375 0.75 -5.078125 C 0.75 -6.054688 0.976562 -6.9375 1.4375 -7.71875 C 1.90625 -8.507812 2.546875 -9.128906 3.359375 -9.578125 C 4.179688 -10.035156 5.097656 -10.265625 6.109375 -10.265625 C 7.109375 -10.265625 8.015625 -10.039062 8.828125 -9.59375 C 9.640625 -9.144531 10.273438 -8.523438 10.734375 -7.734375 C 11.203125 -6.941406 11.4375 -6.054688 11.4375 -5.078125 C 11.4375 -4.109375 11.203125 -3.226562 10.734375 -2.4375 C 10.273438 -1.644531 9.640625 -1.023438 8.828125 -0.578125 C 8.015625 -0.128906 7.109375 0.09375 6.109375 0.09375 Z M 6.109375 -0.875 C 6.910156 -0.875 7.632812 -1.054688 8.28125 -1.421875 C 8.925781 -1.785156 9.429688 -2.285156 9.796875 -2.921875 C 10.171875 -3.566406 10.359375 -4.285156 10.359375 -5.078125 C 10.359375 -5.878906 10.171875 -6.597656 9.796875 -7.234375 C 9.429688 -7.878906 8.925781 -8.382812 8.28125 -8.75 C 7.632812 -9.113281 6.910156 -9.296875 6.109375 -9.296875 C 5.296875 -9.296875 4.5625 -9.113281 3.90625 -8.75 C 3.257812 -8.382812 2.75 -7.878906 2.375 -7.234375 C 2 -6.597656 1.8125 -5.878906 1.8125 -5.078125 C 1.8125 -4.285156 2 -3.566406 2.375 -2.921875 C 2.75 -2.285156 3.257812 -1.785156 3.90625 -1.421875 C 4.5625 -1.054688 5.296875 -0.875 6.109375 -0.875 Z M 6.109375 -0.875 "/></g></g></g><g fill="#545454" fill-opacity="1"><g transform="translate(202.212049, 263.602747)"><g/></g></g><g fill="#545454" fill-opacity="1"><g transform="translate(210.650842, 263.602747)"><g><path d="M 5.140625 -3.515625 L 5.140625 0 L 4.078125 0 L 4.078125 -3.515625 L 0.015625 -10.171875 L 1.15625 -10.171875 L 4.65625 -4.46875 L 8.140625 -10.171875 L 9.21875 -10.171875 Z M 5.140625 -3.515625 "/></g></g></g><g fill="#545454" fill-opacity="1"><g transform="translate(224.505402, 263.602747)"><g><path d="M 5.75 0.09375 C 4.4375 0.09375 3.410156 -0.28125 2.671875 -1.03125 C 1.929688 -1.789062 1.5625 -2.894531 1.5625 -4.34375 L 1.5625 -10.171875 L 2.640625 -10.171875 L 2.640625 -4.390625 C 2.640625 -3.203125 2.90625 -2.316406 3.4375 -1.734375 C 3.976562 -1.160156 4.75 -0.875 5.75 -0.875 C 6.769531 -0.875 7.546875 -1.160156 8.078125 -1.734375 C 8.609375 -2.316406 8.875 -3.203125 8.875 -4.390625 L 8.875 -10.171875 L 9.921875 -10.171875 L 9.921875 -4.34375 C 9.921875 -2.894531 9.554688 -1.789062 8.828125 -1.03125 C 8.097656 -0.28125 7.070312 0.09375 5.75 0.09375 Z M 5.75 0.09375 "/></g></g></g><g fill="#545454" fill-opacity="1"><g transform="translate(240.639534, 263.602747)"><g><path d="M 8.609375 0 L 6.28125 -3.265625 C 6.019531 -3.234375 5.75 -3.21875 5.46875 -3.21875 L 2.734375 -3.21875 L 2.734375 0 L 1.65625 0 L 1.65625 -10.171875 L 5.46875 -10.171875 C 6.757812 -10.171875 7.773438 -9.859375 8.515625 -9.234375 C 9.253906 -8.617188 9.625 -7.769531 9.625 -6.6875 C 9.625 -5.894531 9.421875 -5.222656 9.015625 -4.671875 C 8.609375 -4.117188 8.035156 -3.722656 7.296875 -3.484375 L 9.78125 0 Z M 5.4375 -4.140625 C 6.445312 -4.140625 7.21875 -4.363281 7.75 -4.8125 C 8.28125 -5.257812 8.546875 -5.882812 8.546875 -6.6875 C 8.546875 -7.507812 8.28125 -8.140625 7.75 -8.578125 C 7.21875 -9.015625 6.445312 -9.234375 5.4375 -9.234375 L 2.734375 -9.234375 L 2.734375 -4.140625 Z M 5.4375 -4.140625 "/></g></g></g><g fill="#545454" fill-opacity="1"><g transform="translate(255.771827, 263.602747)"><g><path d="M 1.65625 -10.171875 L 2.734375 -10.171875 L 2.734375 0 L 1.65625 0 Z M 1.65625 -10.171875 "/></g></g></g><g fill="#545454" fill-opacity="1"><g transform="translate(264.791395, 263.602747)"><g><path d="M 5.140625 -3.515625 L 5.140625 0 L 4.078125 0 L 4.078125 -3.515625 L 0.015625 -10.171875 L 1.15625 -10.171875 L 4.65625 -4.46875 L 8.140625 -10.171875 L 9.21875 -10.171875 Z M 5.140625 -3.515625 "/></g></g></g></svg>